# File created by Blade
# Date/Time:  Thu Sep 25 17:33:50 2014
# Frame Rate: 120.000 fps
#------------------------------------------------------
:FULLY-SPECIFIED
:DEGREES
987
root -5.222329 33.860766 -1.728544 11.122418 18.513715 41.283032
Spine 15.729824 20.601822 -28.219658
Head -22.497485 -28.838097 -2.127271
LeftShoulder -15.017671 28.306225 10.032503
LeftArm 12.535131 -24.924631 -61.784513
LeftForeArm 32.651614 -0.000000 98.798655
LeftHand -28.945372 0.000000 29.026973
LeftHandThumb1 -26.253704 0.000000 33.147579
RightShoulder -11.960103 18.351432 -25.095719
RightArm 36.431957 -19.470668 50.742517
RightForeArm -26.668477 -0.000000 118.807182
RightHand 4.764364 -0.000000 -32.414148
RightHandThumb1 -24.326973 -0.000000 -32.862282
LeftUpLeg -105.510734 25.683738 -2.231317
LeftLeg 11.009334 -0.000000 -0.000000
LeftFoot 21.641331 29.849734 -26.856702
LeftToeBase 1.574170 -0.000000 -0.000000
RightUpLeg -6.661122 -8.580437 -38.076888
RightLeg 28.903290 -0.000000 -0.000000
RightFoot -16.284771 -23.140240 -15.166826
RightToeBase -1.778542 -0.000000 0.000000
988
root -5.229434 33.825017 -1.720250 10.491343 17.975057 40.397855
Spine 15.429880 20.707317 -27.776616
Head -22.371843 -28.791348 -1.995933
LeftShoulder -15.241410 28.478625 9.762855
LeftArm 11.972402 -23.492470 -62.532687
LeftForeArm 32.648491 -0.000000 100.085362
LeftHand -28.933831 -0.000000 29.068282
LeftHandThumb1 -26.253704 0.000000 33.147579
RightShoulder -11.385635 18.642736 -25.274726
RightArm 35.548545 -20.362128 51.689151
RightForeArm -26.555676 -0.000000 119.439930
RightHand 5.241760 -0.000000 -31.638061
RightHandThumb1 -24.326973 -0.000000 -32.862282
LeftUpLeg -104.535567 24.811878 -2.162279
LeftLeg 11.161353 -0.000000 -0.000000
LeftFoot 22.370232 29.541682 -26.620785
LeftToeBase 1.490507 -0.000000 -0.000000
RightUpLeg -6.977906 -8.252893 -37.328708
RightLeg 29.127193 -0.000000 -0.000000
RightFoot -16.446129 -22.789190 -14.929990
RightToeBase -1.540656 -0.000000 0.000000
989
root -5.243390 33.785955 -1.709326 9.811987 17.433595 39.436827
Spine 15.231281 20.875779 -27.203866
Head -22.377514 -28.722972 -1.782734
LeftShoulder -15.397399 28.501983 9.502878
LeftArm 11.348354 -21.973790 -63.101741
LeftForeArm 32.158191 -0.000000 101.346249
LeftHand -28.732844 -0.000000 29.351166
LeftHandThumb1 -26.253704 0.000000 33.147579
RightShoulder -11.338398 18.635698 -25.211802
RightArm 35.630884 -21.250339 51.905666
RightForeArm -26.390174 -0.000000 119.706470
RightHand 5.573525 -0.000000 -32.174862
RightHandThumb1 -24.326973 -0.000000 -32.862282
LeftUpLeg -103.595861 23.943122 -2.184886
LeftLeg 11.468661 -0.000000 -0.000000
LeftFoot 22.939058 29.107337 -26.460251
LeftToeBase 1.633852 -0.000000 -0.000000
RightUpLeg -7.249803 -7.891267 -36.474511
RightLeg 29.343506 -0.000000 -0.000000
RightFoot -16.585354 -22.487932 -14.878078
RightToeBase -1.698610 -0.000000 0.000000
990
root -5.257707 33.747881 -1.703780 9.248195 16.921932 38.504203
Spine 14.946211 20.965288 -26.693957
Head -22.422472 -28.591794 -1.466258
LeftShoulder -15.602142 28.625412 9.299004
LeftArm 10.911653 -20.529843 -63.868242
LeftForeArm 31.677394 -0.000000 102.662409
LeftHand -28.951460 0.000000 28.678981
LeftHandThumb1 -26.253704 0.000000 33.147579
RightShoulder -11.346258 18.614890 -25.063036
RightArm 35.743696 -22.077522 52.070752
RightForeArm -26.477396 -0.000000 119.953433
RightHand 5.920807 -0.000000 -32.677949
RightHandThumb1 -24.326973 -0.000000 -32.862282
LeftUpLeg -102.612259 23.085382 -2.091650
LeftLeg 11.793545 -0.000000 -0.000000
LeftFoot 23.330590 28.737267 -26.673682
LeftToeBase 1.671410 -0.000000 -0.000000
RightUpLeg -7.545525 -7.645886 -35.632577
RightLeg 29.509189 -0.000000 -0.000000
RightFoot -16.703996 -22.167020 -14.900408
RightToeBase -1.888562 -0.000000 0.000000
991
root -5.278950 33.704600 -1.694594 8.671327 16.392194 37.456818
Spine 14.618888 21.081608 -26.036538
Head -22.330693 -28.493820 -1.263336
LeftShoulder -15.791316 28.880658 8.975059
LeftArm 10.692606 -19.282046 -64.611960
LeftForeArm 31.098060 -0.000000 104.005828
LeftHand -28.284364 -0.000000 27.252420
LeftHandThumb1 -26.253704 0.000000 33.147579
RightShoulder -11.298118 18.583184 -24.946368
RightArm 35.643441 -22.770608 52.373833
RightForeArm -26.254060 -0.000000 120.412077
RightHand 5.898434 -0.000000 -32.376318
RightHandThumb1 -24.326973 -0.000000 -32.862282
LeftUpLeg -101.624068 22.310764 -1.909920
LeftLeg 12.230427 -0.000000 -0.000000
LeftFoot 23.526602 28.467381 -27.192827
LeftToeBase 1.716063 -0.000000 -0.000000
RightUpLeg -7.837852 -7.376788 -34.652150
RightLeg 29.632107 -0.000000 -0.000000
RightFoot -16.859835 -21.849987 -14.828150
RightToeBase -2.081258 -0.000000 0.000000
992
root -5.293155 33.666302 -1.697334 8.240287 15.889043 36.473181
Spine 14.221798 21.329460 -25.404181
Head -22.299932 -28.602095 -0.998824
LeftShoulder -15.701995 29.086330 8.870799
LeftArm 10.500536 -18.064842 -65.483793
LeftForeArm 30.885029 0.000000 105.369734
LeftHand -27.219999 -0.000000 25.505741
LeftHandThumb1 -26.253704 0.000000 33.147579
RightShoulder -11.499097 18.355452 -24.864131
RightArm 35.603673 -23.423527 52.501636
RightForeArm -26.521524 -0.000000 120.811057
RightHand 5.806714 0.000000 -32.302107
RightHandThumb1 -24.326973 -0.000000 -32.862282
LeftUpLeg -100.561848 21.515804 -1.666345
LeftLeg 12.490900 -0.000000 -0.000000
LeftFoot 23.687858 28.454231 -28.012162
LeftToeBase 1.912965 -0.000000 -0.000000
RightUpLeg -8.194547 -7.117603 -33.731736
RightLeg 29.741939 -0.000000 -0.000000
RightFoot -16.979827 -21.475420 -14.575898
RightToeBase -2.350647 -0.000000 0.000000
993
root -5.317475 33.626477 -1.694258 7.833503 15.324609 35.543827
Spine 13.804784 21.272489 -25.006085
Head -22.435602 -28.271603 -0.499242
LeftShoulder -16.136629 29.415440 8.600551
LeftArm 10.650664 -16.716968 -66.340784
LeftForeArm 31.888584 -0.000000 106.497694
LeftHand -27.161322 -0.000000 24.779075
LeftHandThumb1 -26.253704 0.000000 33.147579
RightShoulder -11.461705 18.586461 -24.809093
RightArm 35.290645 -24.296768 52.795101
RightForeArm -26.920754 0.000000 121.156016
RightHand 5.728283 0.000000 -32.509305
RightHandThumb1 -24.326973 -0.000000 -32.862282
LeftUpLeg -99.615077 20.782855 -1.748878
LeftLeg 12.918755 -0.000000 -0.000000
LeftFoot 24.321278 28.034151 -28.069930
LeftToeBase 1.790826 -0.000000 -0.000000
RightUpLeg -8.579211 -6.859994 -32.846797
RightLeg 29.871798 -0.000000 -0.000000
RightFoot -17.161802 -21.122081 -14.464500
RightToeBase -2.332394 -0.000000 0.000000
994
root -5.344666 33.591155 -1.689520 7.388641 14.838595 34.603385
Spine 13.490718 21.344313 -24.476717
Head -22.452902 -28.189277 -0.138497
LeftShoulder -16.260438 29.727362 8.465299
LeftArm 10.914288 -15.482289 -67.290712
LeftForeArm 32.994421 -0.000000 107.490424
LeftHand -27.560645 -0.000000 24.607142
LeftHandThumb1 -26.253704 0.000000 33.147579
RightShoulder -11.602924 18.510991 -24.773756
RightArm 35.198484 -25.050948 53.060034
RightForeArm -27.557607 -0.000000 121.371834
RightHand 5.407363 0.000000 -33.180232
RightHandThumb1 -24.326973 -0.000000 -32.862282
LeftUpLeg -98.548527 20.009118 -1.765064
LeftLeg 13.346481 -0.000000 -0.000000
LeftFoot 24.956387 27.653977 -28.023494
LeftToeBase 1.847531 -0.000000 -0.000000
RightUpLeg -8.823328 -6.454217 -31.914441
RightLeg 29.915816 -0.000000 -0.000000
RightFoot -17.164716 -20.995403 -14.505620
RightToeBase -2.332814 -0.000000 0.000000
995
root -5.362125 33.557366 -1.682443 7.021158 14.360413 33.704665
Spine 13.049921 21.413008 -23.982256
Head -22.219684 -28.160600 0.067330
LeftShoulder -16.179664 29.963015 8.518107
LeftArm 11.014607 -14.137122 -68.228009
LeftForeArm 33.796026 -0.000000 108.529273
LeftHand -28.055223 -0.000000 24.311730
LeftHandThumb1 -26.253704 0.000000 33.147579
RightShoulder -11.685789 18.131644 -24.615650
RightArm 35.125651 -25.493715 53.149572
RightForeArm -27.521419 -0.000000 121.683012
RightHand 5.386964 -0.000000 -33.017855
RightHandThumb1 -24.326973 -0.000000 -32.862282
LeftUpLeg -97.482448 19.226856 -1.847782
LeftLeg 13.743457 -0.000000 -0.000000
LeftFoot 25.426783 27.205559 -28.027409
LeftToeBase 3.008858 -0.000000 -0.000000
RightUpLeg -9.060841 -6.118884 -31.032668
RightLeg 29.910214 -0.000000 -0.000000
RightFoot -17.266456 -20.787567 -14.332646
RightToeBase -2.292238 -0.000000 0.000000
996
root -5.385137 33.522738 -1.678764 6.680908 13.935247 32.746546
Spine 12.631005 21.337133 -23.389000
Head -22.090622 -28.041178 0.231019
LeftShoulder -16.239213 30.249422 8.454713
LeftArm 11.308216 -12.781900 -69.090574
LeftForeArm 34.210315 0.000000 109.374433
LeftHand -28.348863 0.000000 24.195643
LeftHandThumb1 -26.253704 0.000000 33.147579
RightShoulder -11.798086 17.894713 -24.598112
RightArm 34.956441 -26.076817 53.392348
RightForeArm -27.434711 -0.000000 121.877503
RightHand 5.277008 -0.000000 -33.177230
RightHandThumb1 -24.326973 -0.000000 -32.862282
LeftUpLeg -96.324226 18.463031 -1.844286
LeftLeg 14.033214 -0.000000 -0.000000
LeftFoot 26.001543 26.915232 -27.837142
LeftToeBase 1.772506 -0.000000 -0.000000
RightUpLeg -9.319695 -5.985196 -30.086788
RightLeg 29.937814 -0.000000 -0.000000
RightFoot -17.299988 -20.449402 -14.339122
RightToeBase -2.356342 -0.000000 0.000000
997
root -5.402294 33.484442 -1.677448 6.460657 13.528582 31.698850
Spine 12.042622 21.237386 -22.654452
Head -21.815706 -28.006868 0.148369
LeftShoulder -16.233436 30.444900 8.381249
LeftArm 11.505627 -11.277049 -69.774613
LeftForeArm 34.215416 0.000000 110.010810
LeftHand -28.214553 -0.000000 24.437035
LeftHandThumb1 -26.253704 0.000000 33.147579
RightShoulder -12.022172 17.617665 -24.700455
RightArm 34.834665 -26.862676 53.410136
RightForeArm -27.569636 -0.000000 121.920637
RightHand 5.022765 0.000000 -34.115133
RightHandThumb1 -24.326973 -0.000000 -32.862282
LeftUpLeg -95.305134 17.692146 -1.762559
LeftLeg 14.397993 -0.000000 -0.000000
LeftFoot 26.062042 26.786522 -28.166811
LeftToeBase 2.530345 -0.000000 -0.000000
RightUpLeg -9.645270 -5.902169 -29.036059
RightLeg 29.890336 -0.000000 -0.000000
RightFoot -17.125932 -20.287445 -14.694857
RightToeBase -2.724479 -0.000000 0.000000
